<?xml version="1.0" encoding="UTF-8"?>
<svg version="1.1" xmlns="http://www.w3.org/2000/svg" width="97" height="67">
<path d="M0 0 C2.64 0 5.28 0 8 0 C7.34 1.65 6.68 3.3 6 5 C6.71027344 5.33773438 7.42054687 5.67546875 8.15234375 6.0234375 C9.07144531 6.46945313 9.99054688 6.91546875 10.9375 7.375 C11.85402344 7.81585937 12.77054687 8.25671875 13.71484375 8.7109375 C16 10 16 10 17 12 C17.039992 13.99960012 17.04346799 16.00047242 17 18 C12.05 19.485 12.05 19.485 7 21 C7.495 23.475 7.495 23.475 8 26 C8.06533435 27.93651019 8.08584303 29.87502861 8.0625 31.8125 C8.05347656 32.78832031 8.04445313 33.76414063 8.03515625 34.76953125 C8.02355469 35.50558594 8.01195313 36.24164063 8 37 C6.35 37.33 4.7 37.66 3 38 C3.165 39.258125 3.33 40.51625 3.5 41.8125 C3.82158241 44.26456585 4 46.51650694 4 49 C4.99 49.680625 4.99 49.680625 6 50.375 C6.66 50.91125 7.32 51.4475 8 52 C8.25 54.6875 8.25 54.6875 8 57 C6.68 57 5.36 57 4 57 C5.98 58.32 7.96 59.64 10 61 C9.67 62.98 9.34 64.96 9 67 C1.49784483 66.23706897 1.49784483 66.23706897 -1.625 64.75 C-5.1280015 63.643789 -6.79815515 65.36768694 -10 67 C-15.96203888 67.60630904 -20.62395196 66.42758183 -26.2890625 64.55859375 C-28.98596992 63.83114224 -28.98596992 63.83114224 -31.66040039 64.45678711 C-35.50818331 65.08266013 -39.2592707 65.14361183 -43.14453125 65.1328125 C-43.91375412 65.13376923 -44.68297699 65.13472595 -45.47550964 65.13571167 C-47.09671104 65.13638934 -48.71791521 65.13456398 -50.33911133 65.13037109 C-52.79449711 65.12503909 -55.24969814 65.13031876 -57.70507812 65.13671875 C-59.2890629 65.13605747 -60.87304756 65.13477527 -62.45703125 65.1328125 C-63.54030449 65.13584885 -63.54030449 65.13584885 -64.64546204 65.13894653 C-69.82656234 65.11563894 -74.8576796 64.63752744 -80 64 C-80 63.01 -80 62.02 -80 61 C-75.57142414 60.27257295 -71.34417404 59.9305313 -66.84545898 59.86132812 C-54.26381483 59.59223083 -39.37382039 57.68691019 -28 52 C-28.13921875 51.05253906 -28.13921875 51.05253906 -28.28125 50.0859375 C-29.10523213 39.87444464 -24.17288078 32.15381917 -17.90625 24.4140625 C-12.5109927 17.58154403 -10.29479993 10.6034409 -11 2 C-7.65626525 2.55728913 -4.96687001 3.35173889 -2 5 C-1.34 3.35 -0.68 1.7 0 0 Z " fill="#2E2B29" transform="translate(80,0)"/>
<path d="M0 0 C1.5625 2.375 1.5625 2.375 3 5 C5.06954847 6.78344178 5.06954847 6.78344178 7 8 C6.67 9.32 6.34 10.64 6 12 C1 11 1 11 -1.4375 10.375 C-4.01891155 9.85995347 -4.01891155 9.85995347 -6.65112305 10.46826172 C-10.50144381 11.07961979 -14.25845609 11.14361409 -18.14453125 11.1328125 C-18.91375412 11.13376923 -19.68297699 11.13472595 -20.47550964 11.13571167 C-22.09671104 11.13638934 -23.71791521 11.13456398 -25.33911133 11.13037109 C-27.79449711 11.12503909 -30.24969814 11.13031876 -32.70507812 11.13671875 C-34.2890629 11.13605747 -35.87304756 11.13477527 -37.45703125 11.1328125 C-38.54030449 11.13584885 -38.54030449 11.13584885 -39.64546204 11.13894653 C-44.82656234 11.11563894 -49.8576796 10.63752744 -55 10 C-55 9.01 -55 8.02 -55 7 C-50.57168095 6.27261514 -46.34456964 5.93107929 -41.84619141 5.86083984 C-31.80710945 5.64833843 -22.66170759 3.72089368 -13.01000977 0.99536133 C-12.03990967 0.72618896 -11.06980957 0.4570166 -10.0703125 0.1796875 C-8.78278076 -0.19567139 -8.78278076 -0.19567139 -7.46923828 -0.57861328 C-4.63881751 -1.06163743 -2.73147604 -0.8648797 0 0 Z " fill="#715C47" transform="translate(55,54)"/>
<path d="M0 0 C4.29 0 8.58 0 13 0 C13.33 0.66 13.66 1.32 14 2 C11.36 2.66 8.72 3.32 6 4 C6.16371094 4.70511719 6.32742187 5.41023438 6.49609375 6.13671875 C7.01699824 9.09658688 7.09866732 11.81061273 7.0625 14.8125 C7.05347656 15.78832031 7.04445313 16.76414062 7.03515625 17.76953125 C7.02355469 18.50558594 7.01195313 19.24164063 7 20 C5.35 20.33 3.7 20.66 2 21 C2.165 22.258125 2.33 23.51625 2.5 24.8125 C2.82158241 27.26456585 3 29.51650694 3 32 C3.66 32.45375 4.32 32.9075 5 33.375 C5.66 33.91125 6.32 34.4475 7 35 C7.25 37.6875 7.25 37.6875 7 40 C5.68 40 4.36 40 3 40 C4.98 41.32 6.96 42.64 9 44 C8.67 45.98 8.34 47.96 8 50 C0.76157407 49.63194444 0.76157407 49.63194444 -2.9375 46.5625 C-5 44 -5 44 -6 42 C-4.02 41.505 -4.02 41.505 -2 41 C-2.14203337 38.62471849 -2.28851612 36.24984749 -2.4375 33.875 C-2.47681641 33.20984375 -2.51613281 32.5446875 -2.55664062 31.859375 C-2.75558155 28.73753287 -3.0497988 25.73357644 -3.625 22.65625 C-4 20 -4 20 -2.5625 17.625 C-2.046875 17.08875 -1.53125 16.5525 -1 16 C-0.01 16.66 0.98 17.32 2 18 C1.85946128 15.37461716 1.71281053 12.74982573 1.5625 10.125 C1.52318359 9.37863281 1.48386719 8.63226563 1.44335938 7.86328125 C1.28426376 3.80013136 1.28426376 3.80013136 0 0 Z " fill="#88775F" transform="translate(81,17)"/>
<path d="M0 0 C2.64 0 5.28 0 8 0 C7.34 1.65 6.68 3.3 6 5 C7.06541016 5.47179687 7.06541016 5.47179687 8.15234375 5.953125 C9.07144531 6.38109375 9.99054688 6.8090625 10.9375 7.25 C11.85402344 7.66765625 12.77054688 8.0853125 13.71484375 8.515625 C16 10 16 10 16.81640625 12.171875 C16.87699219 12.77515625 16.93757813 13.3784375 17 14 C16.01 13.67 15.02 13.34 14 13 C14 12.34 14 11.68 14 11 C12.865625 10.855625 11.73125 10.71125 10.5625 10.5625 C7 10 7 10 6 9 C2.84472689 8.51038866 1.02791465 8.25781133 -2 9 C-7.09793606 12.96170968 -9.71003453 18.06690765 -12 24 C-15.45886295 31.44771296 -20.34422248 37.09778337 -26 43 C-26.66 42.34 -27.32 41.68 -28 41 C-26.75543833 38.76764303 -25.5046061 36.53920338 -24.25 34.3125 C-23.90195312 33.68666016 -23.55390625 33.06082031 -23.1953125 32.41601562 C-21.06601736 28.65031774 -18.71631003 25.37868891 -16 22 C-12.1087834 15.24157117 -10.36186113 9.78529422 -11 2 C-7.65626525 2.55728913 -4.96687001 3.35173889 -2 5 C-1.34 3.35 -0.68 1.7 0 0 Z " fill="#665C59" transform="translate(80,0)"/>
<path d="M0 0 C1.32 1.32 2.64 2.64 4 4 C3.236875 4.99 2.47375 5.98 1.6875 7 C-0.17717081 9.58866311 -1.44257935 11.91078357 -2.4375 14.9375 C-4.99629056 22.38386803 -10.89609062 28.16696071 -16 34 C-16.66 33.34 -17.32 32.68 -18 32 C-16.75543833 29.76764303 -15.5046061 27.53920338 -14.25 25.3125 C-13.90195312 24.68666016 -13.55390625 24.06082031 -13.1953125 23.41601562 C-11.58519227 20.56848819 -10.01107059 18.01358663 -7.9375 15.46875 C-5.6424206 12.54437463 -4.25793882 9.58036235 -2.75 6.1875 C-1.96882813 4.44533203 -1.96882813 4.44533203 -1.171875 2.66796875 C-0.78515625 1.78753906 -0.3984375 0.90710937 0 0 Z " fill="#5E5652" transform="translate(70,9)"/>
<path d="M0 0 C4.29 0 8.58 0 13 0 C13.33 0.66 13.66 1.32 14 2 C11.36 2.66 8.72 3.32 6 4 C6.16371094 4.70511719 6.32742187 5.41023438 6.49609375 6.13671875 C7.01699824 9.09658688 7.09866732 11.81061273 7.0625 14.8125 C7.05347656 15.78832031 7.04445313 16.76414062 7.03515625 17.76953125 C7.02355469 18.50558594 7.01195313 19.24164063 7 20 C5.1875 20.625 5.1875 20.625 3 21 C2.01 20.34 1.02 19.68 0 19 C-0.66 21.31 -1.32 23.62 -2 26 C-3.125 24.375 -3.125 24.375 -4 22 C-3.125 18.75 -3.125 18.75 -2 16 C-0.68 16.66 0.64 17.32 2 18 C1.85946128 15.37461716 1.71281053 12.74982573 1.5625 10.125 C1.52318359 9.37863281 1.48386719 8.63226563 1.44335938 7.86328125 C1.28426376 3.80013136 1.28426376 3.80013136 0 0 Z " fill="#675A48" transform="translate(81,17)"/>
<path d="M0 0 C1.485 0.99 1.485 0.99 3 2 C3.99 1.34 4.98 0.68 6 0 C9.77491089 1.25830363 11.46183391 2.96830161 14 6 C13.8125 8.3125 13.8125 8.3125 13 10 C12.360625 9.855625 11.72125 9.71125 11.0625 9.5625 C7.06155212 8.82763202 3.04495104 8.41418889 -1 8 C-0.67 5.36 -0.34 2.72 0 0 Z " fill="#6A5642" transform="translate(48,56)"/>
<path d="M0 0 C0 0.66 0 1.32 0 2 C0.89203125 2.06058594 1.7840625 2.12117188 2.703125 2.18359375 C3.87359375 2.26738281 5.0440625 2.35117187 6.25 2.4375 C7.41015625 2.51871094 8.5703125 2.59992187 9.765625 2.68359375 C12.30977376 2.93247787 14.55953248 3.28114942 17 4 C17.33 3.34 17.66 2.68 18 2 C18.33 2.99 18.66 3.98 19 5 C15.52085157 5.0294191 12.04173583 5.04693792 8.5625 5.0625 C7.10166992 5.07506836 7.10166992 5.07506836 5.61132812 5.08789062 C-0.34778969 5.10782078 -6.09067683 4.77609518 -12 4 C-12 3.01 -12 2.02 -12 1 C-7.95858806 0.36605303 -4.0934693 -0.12404452 0 0 Z " fill="#665441" transform="translate(12,60)"/>
<path d="M0 0 C-1.375 1.5 -1.375 1.5 -3 3 C-3.66 3 -4.32 3 -5 3 C-5 3.66 -5 4.32 -5 5 C-11.06892629 5.25287193 -16.16200408 4.69832609 -22 3 C-22 2.34 -22 1.68 -22 1 C-14.65623924 0.42240084 -7.36901413 -0.14738028 0 0 Z " fill="#92765C" transform="translate(34,59)"/>
<path d="M0 0 C3.82097239 0.53069061 6.06171403 1.49701566 9 4 C8.42655063 6.86724686 8.1385485 7.8614515 6 10 C4 9.8125 4 9.8125 2 9 C-0.29013653 5.5647952 -0.17842973 4.014669 0 0 Z " fill="#7F6851" transform="translate(69,2)"/>
<path d="M0 0 C0 1.32 0 2.64 0 4 C-4.95 3.67 -9.9 3.34 -15 3 C-14.67 2.01 -14.34 1.02 -14 0 C-8.7715452 -2.01094416 -5.04462432 -2.52231216 0 0 Z " fill="#2A2624" transform="translate(97,14)"/>
<path d="M0 0 C1.32 1.32 2.64 2.64 4 4 C3.236875 4.99 2.47375 5.98 1.6875 7 C-0.26811028 9.70691819 -1.58435024 12.22476821 -2.6875 15.375 C-4 19 -4 19 -6 20 C-5.67949202 17.66487041 -5.34403308 15.33177975 -5 13 C-4.896875 12.195625 -4.79375 11.39125 -4.6875 10.5625 C-3.67142692 6.7753185 -1.83969659 3.44836152 0 0 Z " fill="#59524E" transform="translate(70,9)"/>
<path d="M0 0 C2.64 0 5.28 0 8 0 C7.34 1.65 6.68 3.3 6 5 C1.545 5.495 1.545 5.495 -3 6 C-2.01 4.02 -1.02 2.04 0 0 Z " fill="#4E4843" transform="translate(80,0)"/>
<path d="M0 0 C2 2 2 2 2.4375 3.9375 C3.12583789 6.4614056 3.98528739 7.35838232 6 9 C8.09989652 10.17574711 8.09989652 10.17574711 10 11 C2.76157407 10.63194444 2.76157407 10.63194444 -0.9375 7.5625 C-3 5 -3 5 -4 3 C-2.68 2.67 -1.36 2.34 0 2 C0 1.34 0 0.68 0 0 Z " fill="#685542" transform="translate(79,56)"/>
<path d="M0 0 C4.29 0 8.58 0 13 0 C13.33 0.66 13.66 1.32 14 2 C10.32589215 3.17571451 6.83070817 3.07366746 3 3 C3.33 6.3 3.66 9.6 4 13 C3.34 13 2.68 13 2 13 C1.93941406 12.22914062 1.87882812 11.45828125 1.81640625 10.6640625 C1.73261719 9.66117188 1.64882812 8.65828125 1.5625 7.625 C1.48128906 6.62726562 1.40007812 5.62953125 1.31640625 4.6015625 C1.15034374 2.02072387 1.15034374 2.02072387 0 0 Z " fill="#555042" transform="translate(81,17)"/>
<path d="M0 0 C4.65562977 0.03367544 8.18456498 1.42731356 12.4375 3.25 C12.1075 3.91 11.7775 4.57 11.4375 5.25 C9.51999714 5.16256669 7.60343335 5.0543811 5.6875 4.9375 C4.62015625 4.87949219 3.5528125 4.82148438 2.453125 4.76171875 C-0.7446068 4.21909846 -2.18848691 3.39928855 -4.5625 1.25 C-3.5625 0.25 -3.5625 0.25 0 0 Z " fill="#484240" transform="translate(81.5625,7.75)"/>
<path d="M0 0 C3.37462715 0.54723683 5.08235 1.0549 8 3 C7.67 4.65 7.34 6.3 7 8 C5.35 7.67 3.7 7.34 2 7 C1.34 4.69 0.68 2.38 0 0 Z " fill="#96785E" transform="translate(82,58)"/>
<path d="M0 0 C0.33 1.32 0.66 2.64 1 4 C0.01 3.67 -0.98 3.34 -2 3 C-2.99 3.66 -3.98 4.32 -5 5 C-5.99 4.01 -6.98 3.02 -8 2 C-8.33 2.99 -8.66 3.98 -9 5 C-9.33 3.68 -9.66 2.36 -10 1 C-6.21812119 -0.83691257 -4.05431692 -1.15837626 0 0 Z " fill="#8F745A" transform="translate(55,54)"/>
<path d="M0 0 C5.57142857 5.14285714 5.57142857 5.14285714 6 9 C4.865625 8.67 3.73125 8.34 2.5625 8 C-0.54376639 6.95495727 -0.54376639 6.95495727 -2 7 C-2.125 4.625 -2.125 4.625 -2 2 C-1.34 1.34 -0.68 0.68 0 0 Z " fill="#A0896C" transform="translate(82,46)"/>
<path d="M0 0 C0.99 0 1.98 0 3 0 C3.33 0.99 3.66 1.98 4 3 C4.66 2.34 5.32 1.68 6 1 C5.67 3.64 5.34 6.28 5 9 C3.35 9.33 1.7 9.66 0 10 C0.66 9.67 1.32 9.34 2 9 C2 6.36 2 3.72 2 1 C1.34 0.67 0.68 0.34 0 0 Z " fill="#725D47" transform="translate(42,55)"/>
<path d="M0 0 C0.99 0 1.98 0 3 0 C3 2.64 3 5.28 3 8 C2.01 8.33 1.02 8.66 0 9 C-1.125 2.25 -1.125 2.25 0 0 Z " fill="#8A6F57" transform="translate(41,56)"/>
<path d="M0 0 C1.65 0.99 3.3 1.98 5 3 C4.67 4.32 4.34 5.64 4 7 C2.35 6.67 0.7 6.34 -1 6 C-0.67 4.02 -0.34 2.04 0 0 Z " fill="#554735" transform="translate(57,59)"/>
<path d="M0 0 C1.32 1.32 2.64 2.64 4 4 C2.35 6.31 0.7 8.62 -1 11 C-2.54542837 7.90914327 -1.59315658 5.32167685 -1 2 C-0.67 1.34 -0.34 0.68 0 0 Z " fill="#524A43" transform="translate(70,9)"/>
<path d="M0 0 C-1.0625 1.5 -1.0625 1.5 -3 3 C-6.6875 3.1875 -6.6875 3.1875 -10 3 C-10 2.01 -10 1.02 -10 0 C-3.375 -1.125 -3.375 -1.125 0 0 Z " fill="#574C38" transform="translate(10,61)"/>
<path d="M0 0 C3.4375 1.25 3.4375 1.25 7 3 C7.9375 5.1875 7.9375 5.1875 8 7 C7.01 6.67 6.02 6.34 5 6 C5 5.34 5 4.68 5 4 C2.69 3.67 0.38 3.34 -2 3 C-1.34 2.67 -0.68 2.34 0 2 C0 1.34 0 0.68 0 0 Z " fill="#897361" transform="translate(89,7)"/>
<path d="M0 0 C2.475 0.495 2.475 0.495 5 1 C5.33 2.32 5.66 3.64 6 5 C4.68 5 3.36 5 2 5 C1.34 3.35 0.68 1.7 0 0 Z " fill="#9E7E64" transform="translate(72,4)"/>
<path d="M0 0 C2.64 0 5.28 0 8 0 C6.625 1.5 6.625 1.5 5 3 C4.34 3 3.68 3 3 3 C3 3.66 3 4.32 3 5 C1.68 4.67 0.36 4.34 -1 4 C-0.34 4 0.32 4 1 4 C0.67 2.68 0.34 1.36 0 0 Z " fill="#876D54" transform="translate(26,59)"/>
<path d="M0 0 C4.75 1.875 4.75 1.875 7 3 C7 3.99 7 4.98 7 6 C5.1875 5.8125 5.1875 5.8125 3 5 C1.25 2.4375 1.25 2.4375 0 0 Z " fill="#AF8D6F" transform="translate(83,58)"/>
<path d="M0 0 C4.75 1.875 4.75 1.875 7 3 C7 3.66 7 4.32 7 5 C2.25 4.125 2.25 4.125 0 3 C0 2.01 0 1.02 0 0 Z " fill="#685643" transform="translate(81,52)"/>
<path d="M0 0 C0.99 0.33 1.98 0.66 3 1 C1.63016497 4.16115776 1.0109362 4.9927092 -2 7 C-2.33 6.34 -2.66 5.68 -3 5 C-1.5625 2.375 -1.5625 2.375 0 0 Z " fill="#595148" transform="translate(55,36)"/>
<path d="M0 0 C1.24546405 2.49092811 0.7767578 3.41080733 0 6 C-0.99 6 -1.98 6 -3 6 C-3 4.35 -3 2.7 -3 1 C-2.01 0.67 -1.02 0.34 0 0 Z " fill="#8F7259" transform="translate(38,57)"/>
<path d="M0 0 C1.65 0 3.3 0 5 0 C5.33 0.66 5.66 1.32 6 2 C2.7 2.33 -0.6 2.66 -4 3 C-2.68 2.67 -1.36 2.34 0 2 C0 1.34 0 0.68 0 0 Z " fill="#4A4534" transform="translate(89,17)"/>
</svg>
